<svg width="640" height="527" viewBox="0 0 640 527" fill="none" xmlns="http://www.w3.org/2000/svg">
<path d="M5.256 10.448C8.008 10.448 10.248 8.144 10.248 5.264C10.248 2.512 8.008 0.271999 5.256 0.271999C2.44 0.271999 0.2 2.512 0.2 5.264C0.2 8.144 2.44 10.448 5.256 10.448ZM53.631 10.448C56.383 10.448 58.623 8.144 58.623 5.264C58.623 2.512 56.383 0.271999 53.631 0.271999C50.815 0.271999 48.575 2.512 48.575 5.264C48.575 8.144 50.815 10.448 53.631 10.448ZM102.006 10.448C104.758 10.448 106.998 8.144 106.998 5.264C106.998 2.512 104.758 0.271999 102.006 0.271999C99.19 0.271999 96.95 2.512 96.95 5.264C96.95 8.144 99.19 10.448 102.006 10.448ZM150.381 10.448C153.133 10.448 155.373 8.144 155.373 5.264C155.373 2.512 153.133 0.271999 150.381 0.271999C147.565 0.271999 145.325 2.512 145.325 5.264C145.325 8.144 147.565 10.448 150.381 10.448ZM198.756 10.448C201.508 10.448 203.748 8.144 203.748 5.264C203.748 2.512 201.508 0.271999 198.756 0.271999C195.94 0.271999 193.7 2.512 193.7 5.264C193.7 8.144 195.94 10.448 198.756 10.448ZM247.131 10.448C249.883 10.448 252.123 8.144 252.123 5.264C252.123 2.512 249.883 0.271999 247.131 0.271999C244.315 0.271999 242.075 2.512 242.075 5.264C242.075 8.144 244.315 10.448 247.131 10.448ZM295.506 10.448C298.258 10.448 300.498 8.144 300.498 5.264C300.498 2.512 298.258 0.271999 295.506 0.271999C292.69 0.271999 290.45 2.512 290.45 5.264C290.45 8.144 292.69 10.448 295.506 10.448ZM343.881 10.448C346.633 10.448 348.873 8.144 348.873 5.264C348.873 2.512 346.633 0.271999 343.881 0.271999C341.065 0.271999 338.825 2.512 338.825 5.264C338.825 8.144 341.065 10.448 343.881 10.448ZM392.256 10.448C395.008 10.448 397.248 8.144 397.248 5.264C397.248 2.512 395.008 0.271999 392.256 0.271999C389.44 0.271999 387.2 2.512 387.2 5.264C387.2 8.144 389.44 10.448 392.256 10.448ZM440.631 10.448C443.383 10.448 445.623 8.144 445.623 5.264C445.623 2.512 443.383 0.271999 440.631 0.271999C437.815 0.271999 435.575 2.512 435.575 5.264C435.575 8.144 437.815 10.448 440.631 10.448ZM489.006 10.448C491.758 10.448 493.998 8.144 493.998 5.264C493.998 2.512 491.758 0.271999 489.006 0.271999C486.19 0.271999 483.95 2.512 483.95 5.264C483.95 8.144 486.19 10.448 489.006 10.448ZM537.381 10.448C540.133 10.448 542.373 8.144 542.373 5.264C542.373 2.512 540.133 0.271999 537.381 0.271999C534.565 0.271999 532.325 2.512 532.325 5.264C532.325 8.144 534.565 10.448 537.381 10.448ZM585.756 10.448C588.508 10.448 590.748 8.144 590.748 5.264C590.748 2.512 588.508 0.271999 585.756 0.271999C582.94 0.271999 580.7 2.512 580.7 5.264C580.7 8.144 582.94 10.448 585.756 10.448ZM634.131 10.448C636.883 10.448 639.123 8.144 639.123 5.264C639.123 2.512 636.883 0.271999 634.131 0.271999C631.315 0.271999 629.075 2.512 629.075 5.264C629.075 8.144 631.315 10.448 634.131 10.448ZM5.256 96.448C8.008 96.448 10.248 94.144 10.248 91.264C10.248 88.512 8.008 86.272 5.256 86.272C2.44 86.272 0.2 88.512 0.2 91.264C0.2 94.144 2.44 96.448 5.256 96.448ZM53.631 96.448C56.383 96.448 58.623 94.144 58.623 91.264C58.623 88.512 56.383 86.272 53.631 86.272C50.815 86.272 48.575 88.512 48.575 91.264C48.575 94.144 50.815 96.448 53.631 96.448ZM102.006 96.448C104.758 96.448 106.998 94.144 106.998 91.264C106.998 88.512 104.758 86.272 102.006 86.272C99.19 86.272 96.95 88.512 96.95 91.264C96.95 94.144 99.19 96.448 102.006 96.448ZM150.381 96.448C153.133 96.448 155.373 94.144 155.373 91.264C155.373 88.512 153.133 86.272 150.381 86.272C147.565 86.272 145.325 88.512 145.325 91.264C145.325 94.144 147.565 96.448 150.381 96.448ZM198.756 96.448C201.508 96.448 203.748 94.144 203.748 91.264C203.748 88.512 201.508 86.272 198.756 86.272C195.94 86.272 193.7 88.512 193.7 91.264C193.7 94.144 195.94 96.448 198.756 96.448ZM247.131 96.448C249.883 96.448 252.123 94.144 252.123 91.264C252.123 88.512 249.883 86.272 247.131 86.272C244.315 86.272 242.075 88.512 242.075 91.264C242.075 94.144 244.315 96.448 247.131 96.448ZM295.506 96.448C298.258 96.448 300.498 94.144 300.498 91.264C300.498 88.512 298.258 86.272 295.506 86.272C292.69 86.272 290.45 88.512 290.45 91.264C290.45 94.144 292.69 96.448 295.506 96.448ZM343.881 96.448C346.633 96.448 348.873 94.144 348.873 91.264C348.873 88.512 346.633 86.272 343.881 86.272C341.065 86.272 338.825 88.512 338.825 91.264C338.825 94.144 341.065 96.448 343.881 96.448ZM392.256 96.448C395.008 96.448 397.248 94.144 397.248 91.264C397.248 88.512 395.008 86.272 392.256 86.272C389.44 86.272 387.2 88.512 387.2 91.264C387.2 94.144 389.44 96.448 392.256 96.448ZM440.631 96.448C443.383 96.448 445.623 94.144 445.623 91.264C445.623 88.512 443.383 86.272 440.631 86.272C437.815 86.272 435.575 88.512 435.575 91.264C435.575 94.144 437.815 96.448 440.631 96.448ZM489.006 96.448C491.758 96.448 493.998 94.144 493.998 91.264C493.998 88.512 491.758 86.272 489.006 86.272C486.19 86.272 483.95 88.512 483.95 91.264C483.95 94.144 486.19 96.448 489.006 96.448ZM537.381 96.448C540.133 96.448 542.373 94.144 542.373 91.264C542.373 88.512 540.133 86.272 537.381 86.272C534.565 86.272 532.325 88.512 532.325 91.264C532.325 94.144 534.565 96.448 537.381 96.448ZM585.756 96.448C588.508 96.448 590.748 94.144 590.748 91.264C590.748 88.512 588.508 86.272 585.756 86.272C582.94 86.272 580.7 88.512 580.7 91.264C580.7 94.144 582.94 96.448 585.756 96.448ZM634.131 96.448C636.883 96.448 639.123 94.144 639.123 91.264C639.123 88.512 636.883 86.272 634.131 86.272C631.315 86.272 629.075 88.512 629.075 91.264C629.075 94.144 631.315 96.448 634.131 96.448ZM5.256 182.448C8.008 182.448 10.248 180.144 10.248 177.264C10.248 174.512 8.008 172.272 5.256 172.272C2.44 172.272 0.2 174.512 0.2 177.264C0.2 180.144 2.44 182.448 5.256 182.448ZM53.631 182.448C56.383 182.448 58.623 180.144 58.623 177.264C58.623 174.512 56.383 172.272 53.631 172.272C50.815 172.272 48.575 174.512 48.575 177.264C48.575 180.144 50.815 182.448 53.631 182.448ZM102.006 182.448C104.758 182.448 106.998 180.144 106.998 177.264C106.998 174.512 104.758 172.272 102.006 172.272C99.19 172.272 96.95 174.512 96.95 177.264C96.95 180.144 99.19 182.448 102.006 182.448ZM150.381 182.448C153.133 182.448 155.373 180.144 155.373 177.264C155.373 174.512 153.133 172.272 150.381 172.272C147.565 172.272 145.325 174.512 145.325 177.264C145.325 180.144 147.565 182.448 150.381 182.448ZM198.756 182.448C201.508 182.448 203.748 180.144 203.748 177.264C203.748 174.512 201.508 172.272 198.756 172.272C195.94 172.272 193.7 174.512 193.7 177.264C193.7 180.144 195.94 182.448 198.756 182.448ZM247.131 182.448C249.883 182.448 252.123 180.144 252.123 177.264C252.123 174.512 249.883 172.272 247.131 172.272C244.315 172.272 242.075 174.512 242.075 177.264C242.075 180.144 244.315 182.448 247.131 182.448ZM295.506 182.448C298.258 182.448 300.498 180.144 300.498 177.264C300.498 174.512 298.258 172.272 295.506 172.272C292.69 172.272 290.45 174.512 290.45 177.264C290.45 180.144 292.69 182.448 295.506 182.448ZM343.881 182.448C346.633 182.448 348.873 180.144 348.873 177.264C348.873 174.512 346.633 172.272 343.881 172.272C341.065 172.272 338.825 174.512 338.825 177.264C338.825 180.144 341.065 182.448 343.881 182.448ZM392.256 182.448C395.008 182.448 397.248 180.144 397.248 177.264C397.248 174.512 395.008 172.272 392.256 172.272C389.44 172.272 387.2 174.512 387.2 177.264C387.2 180.144 389.44 182.448 392.256 182.448ZM440.631 182.448C443.383 182.448 445.623 180.144 445.623 177.264C445.623 174.512 443.383 172.272 440.631 172.272C437.815 172.272 435.575 174.512 435.575 177.264C435.575 180.144 437.815 182.448 440.631 182.448ZM489.006 182.448C491.758 182.448 493.998 180.144 493.998 177.264C493.998 174.512 491.758 172.272 489.006 172.272C486.19 172.272 483.95 174.512 483.95 177.264C483.95 180.144 486.19 182.448 489.006 182.448ZM537.381 182.448C540.133 182.448 542.373 180.144 542.373 177.264C542.373 174.512 540.133 172.272 537.381 172.272C534.565 172.272 532.325 174.512 532.325 177.264C532.325 180.144 534.565 182.448 537.381 182.448ZM585.756 182.448C588.508 182.448 590.748 180.144 590.748 177.264C590.748 174.512 588.508 172.272 585.756 172.272C582.94 172.272 580.7 174.512 580.7 177.264C580.7 180.144 582.94 182.448 585.756 182.448ZM634.131 182.448C636.883 182.448 639.123 180.144 639.123 177.264C639.123 174.512 636.883 172.272 634.131 172.272C631.315 172.272 629.075 174.512 629.075 177.264C629.075 180.144 631.315 182.448 634.131 182.448ZM5.256 268.448C8.008 268.448 10.248 266.144 10.248 263.264C10.248 260.512 8.008 258.272 5.256 258.272C2.44 258.272 0.2 260.512 0.2 263.264C0.2 266.144 2.44 268.448 5.256 268.448ZM53.631 268.448C56.383 268.448 58.623 266.144 58.623 263.264C58.623 260.512 56.383 258.272 53.631 258.272C50.815 258.272 48.575 260.512 48.575 263.264C48.575 266.144 50.815 268.448 53.631 268.448ZM102.006 268.448C104.758 268.448 106.998 266.144 106.998 263.264C106.998 260.512 104.758 258.272 102.006 258.272C99.19 258.272 96.95 260.512 96.95 263.264C96.95 266.144 99.19 268.448 102.006 268.448ZM150.381 268.448C153.133 268.448 155.373 266.144 155.373 263.264C155.373 260.512 153.133 258.272 150.381 258.272C147.565 258.272 145.325 260.512 145.325 263.264C145.325 266.144 147.565 268.448 150.381 268.448ZM198.756 268.448C201.508 268.448 203.748 266.144 203.748 263.264C203.748 260.512 201.508 258.272 198.756 258.272C195.94 258.272 193.7 260.512 193.7 263.264C193.7 266.144 195.94 268.448 198.756 268.448ZM247.131 268.448C249.883 268.448 252.123 266.144 252.123 263.264C252.123 260.512 249.883 258.272 247.131 258.272C244.315 258.272 242.075 260.512 242.075 263.264C242.075 266.144 244.315 268.448 247.131 268.448ZM295.506 268.448C298.258 268.448 300.498 266.144 300.498 263.264C300.498 260.512 298.258 258.272 295.506 258.272C292.69 258.272 290.45 260.512 290.45 263.264C290.45 266.144 292.69 268.448 295.506 268.448ZM343.881 268.448C346.633 268.448 348.873 266.144 348.873 263.264C348.873 260.512 346.633 258.272 343.881 258.272C341.065 258.272 338.825 260.512 338.825 263.264C338.825 266.144 341.065 268.448 343.881 268.448ZM392.256 268.448C395.008 268.448 397.248 266.144 397.248 263.264C397.248 260.512 395.008 258.272 392.256 258.272C389.44 258.272 387.2 260.512 387.2 263.264C387.2 266.144 389.44 268.448 392.256 268.448ZM440.631 268.448C443.383 268.448 445.623 266.144 445.623 263.264C445.623 260.512 443.383 258.272 440.631 258.272C437.815 258.272 435.575 260.512 435.575 263.264C435.575 266.144 437.815 268.448 440.631 268.448ZM489.006 268.448C491.758 268.448 493.998 266.144 493.998 263.264C493.998 260.512 491.758 258.272 489.006 258.272C486.19 258.272 483.95 260.512 483.95 263.264C483.95 266.144 486.19 268.448 489.006 268.448ZM537.381 268.448C540.133 268.448 542.373 266.144 542.373 263.264C542.373 260.512 540.133 258.272 537.381 258.272C534.565 258.272 532.325 260.512 532.325 263.264C532.325 266.144 534.565 268.448 537.381 268.448ZM585.756 268.448C588.508 268.448 590.748 266.144 590.748 263.264C590.748 260.512 588.508 258.272 585.756 258.272C582.94 258.272 580.7 260.512 580.7 263.264C580.7 266.144 582.94 268.448 585.756 268.448ZM634.131 268.448C636.883 268.448 639.123 266.144 639.123 263.264C639.123 260.512 636.883 258.272 634.131 258.272C631.315 258.272 629.075 260.512 629.075 263.264C629.075 266.144 631.315 268.448 634.131 268.448ZM5.256 354.448C8.008 354.448 10.248 352.144 10.248 349.264C10.248 346.512 8.008 344.272 5.256 344.272C2.44 344.272 0.2 346.512 0.2 349.264C0.2 352.144 2.44 354.448 5.256 354.448ZM53.631 354.448C56.383 354.448 58.623 352.144 58.623 349.264C58.623 346.512 56.383 344.272 53.631 344.272C50.815 344.272 48.575 346.512 48.575 349.264C48.575 352.144 50.815 354.448 53.631 354.448ZM102.006 354.448C104.758 354.448 106.998 352.144 106.998 349.264C106.998 346.512 104.758 344.272 102.006 344.272C99.19 344.272 96.95 346.512 96.95 349.264C96.95 352.144 99.19 354.448 102.006 354.448ZM150.381 354.448C153.133 354.448 155.373 352.144 155.373 349.264C155.373 346.512 153.133 344.272 150.381 344.272C147.565 344.272 145.325 346.512 145.325 349.264C145.325 352.144 147.565 354.448 150.381 354.448ZM198.756 354.448C201.508 354.448 203.748 352.144 203.748 349.264C203.748 346.512 201.508 344.272 198.756 344.272C195.94 344.272 193.7 346.512 193.7 349.264C193.7 352.144 195.94 354.448 198.756 354.448ZM247.131 354.448C249.883 354.448 252.123 352.144 252.123 349.264C252.123 346.512 249.883 344.272 247.131 344.272C244.315 344.272 242.075 346.512 242.075 349.264C242.075 352.144 244.315 354.448 247.131 354.448ZM295.506 354.448C298.258 354.448 300.498 352.144 300.498 349.264C300.498 346.512 298.258 344.272 295.506 344.272C292.69 344.272 290.45 346.512 290.45 349.264C290.45 352.144 292.69 354.448 295.506 354.448ZM343.881 354.448C346.633 354.448 348.873 352.144 348.873 349.264C348.873 346.512 346.633 344.272 343.881 344.272C341.065 344.272 338.825 346.512 338.825 349.264C338.825 352.144 341.065 354.448 343.881 354.448ZM392.256 354.448C395.008 354.448 397.248 352.144 397.248 349.264C397.248 346.512 395.008 344.272 392.256 344.272C389.44 344.272 387.2 346.512 387.2 349.264C387.2 352.144 389.44 354.448 392.256 354.448ZM440.631 354.448C443.383 354.448 445.623 352.144 445.623 349.264C445.623 346.512 443.383 344.272 440.631 344.272C437.815 344.272 435.575 346.512 435.575 349.264C435.575 352.144 437.815 354.448 440.631 354.448ZM489.006 354.448C491.758 354.448 493.998 352.144 493.998 349.264C493.998 346.512 491.758 344.272 489.006 344.272C486.19 344.272 483.95 346.512 483.95 349.264C483.95 352.144 486.19 354.448 489.006 354.448ZM537.381 354.448C540.133 354.448 542.373 352.144 542.373 349.264C542.373 346.512 540.133 344.272 537.381 344.272C534.565 344.272 532.325 346.512 532.325 349.264C532.325 352.144 534.565 354.448 537.381 354.448ZM585.756 354.448C588.508 354.448 590.748 352.144 590.748 349.264C590.748 346.512 588.508 344.272 585.756 344.272C582.94 344.272 580.7 346.512 580.7 349.264C580.7 352.144 582.94 354.448 585.756 354.448ZM634.131 354.448C636.883 354.448 639.123 352.144 639.123 349.264C639.123 346.512 636.883 344.272 634.131 344.272C631.315 344.272 629.075 346.512 629.075 349.264C629.075 352.144 631.315 354.448 634.131 354.448ZM5.256 440.448C8.008 440.448 10.248 438.144 10.248 435.264C10.248 432.512 8.008 430.272 5.256 430.272C2.44 430.272 0.2 432.512 0.2 435.264C0.2 438.144 2.44 440.448 5.256 440.448ZM53.631 440.448C56.383 440.448 58.623 438.144 58.623 435.264C58.623 432.512 56.383 430.272 53.631 430.272C50.815 430.272 48.575 432.512 48.575 435.264C48.575 438.144 50.815 440.448 53.631 440.448ZM102.006 440.448C104.758 440.448 106.998 438.144 106.998 435.264C106.998 432.512 104.758 430.272 102.006 430.272C99.19 430.272 96.95 432.512 96.95 435.264C96.95 438.144 99.19 440.448 102.006 440.448ZM150.381 440.448C153.133 440.448 155.373 438.144 155.373 435.264C155.373 432.512 153.133 430.272 150.381 430.272C147.565 430.272 145.325 432.512 145.325 435.264C145.325 438.144 147.565 440.448 150.381 440.448ZM198.756 440.448C201.508 440.448 203.748 438.144 203.748 435.264C203.748 432.512 201.508 430.272 198.756 430.272C195.94 430.272 193.7 432.512 193.7 435.264C193.7 438.144 195.94 440.448 198.756 440.448ZM247.131 440.448C249.883 440.448 252.123 438.144 252.123 435.264C252.123 432.512 249.883 430.272 247.131 430.272C244.315 430.272 242.075 432.512 242.075 435.264C242.075 438.144 244.315 440.448 247.131 440.448ZM295.506 440.448C298.258 440.448 300.498 438.144 300.498 435.264C300.498 432.512 298.258 430.272 295.506 430.272C292.69 430.272 290.45 432.512 290.45 435.264C290.45 438.144 292.69 440.448 295.506 440.448ZM343.881 440.448C346.633 440.448 348.873 438.144 348.873 435.264C348.873 432.512 346.633 430.272 343.881 430.272C341.065 430.272 338.825 432.512 338.825 435.264C338.825 438.144 341.065 440.448 343.881 440.448ZM392.256 440.448C395.008 440.448 397.248 438.144 397.248 435.264C397.248 432.512 395.008 430.272 392.256 430.272C389.44 430.272 387.2 432.512 387.2 435.264C387.2 438.144 389.44 440.448 392.256 440.448ZM440.631 440.448C443.383 440.448 445.623 438.144 445.623 435.264C445.623 432.512 443.383 430.272 440.631 430.272C437.815 430.272 435.575 432.512 435.575 435.264C435.575 438.144 437.815 440.448 440.631 440.448ZM489.006 440.448C491.758 440.448 493.998 438.144 493.998 435.264C493.998 432.512 491.758 430.272 489.006 430.272C486.19 430.272 483.95 432.512 483.95 435.264C483.95 438.144 486.19 440.448 489.006 440.448ZM537.381 440.448C540.133 440.448 542.373 438.144 542.373 435.264C542.373 432.512 540.133 430.272 537.381 430.272C534.565 430.272 532.325 432.512 532.325 435.264C532.325 438.144 534.565 440.448 537.381 440.448ZM585.756 440.448C588.508 440.448 590.748 438.144 590.748 435.264C590.748 432.512 588.508 430.272 585.756 430.272C582.94 430.272 580.7 432.512 580.7 435.264C580.7 438.144 582.94 440.448 585.756 440.448ZM634.131 440.448C636.883 440.448 639.123 438.144 639.123 435.264C639.123 432.512 636.883 430.272 634.131 430.272C631.315 430.272 629.075 432.512 629.075 435.264C629.075 438.144 631.315 440.448 634.131 440.448ZM5.256 526.448C8.008 526.448 10.248 524.144 10.248 521.264C10.248 518.512 8.008 516.272 5.256 516.272C2.44 516.272 0.2 518.512 0.2 521.264C0.2 524.144 2.44 526.448 5.256 526.448ZM53.631 526.448C56.383 526.448 58.623 524.144 58.623 521.264C58.623 518.512 56.383 516.272 53.631 516.272C50.815 516.272 48.575 518.512 48.575 521.264C48.575 524.144 50.815 526.448 53.631 526.448ZM102.006 526.448C104.758 526.448 106.998 524.144 106.998 521.264C106.998 518.512 104.758 516.272 102.006 516.272C99.19 516.272 96.95 518.512 96.95 521.264C96.95 524.144 99.19 526.448 102.006 526.448ZM150.381 526.448C153.133 526.448 155.373 524.144 155.373 521.264C155.373 518.512 153.133 516.272 150.381 516.272C147.565 516.272 145.325 518.512 145.325 521.264C145.325 524.144 147.565 526.448 150.381 526.448ZM198.756 526.448C201.508 526.448 203.748 524.144 203.748 521.264C203.748 518.512 201.508 516.272 198.756 516.272C195.94 516.272 193.7 518.512 193.7 521.264C193.7 524.144 195.94 526.448 198.756 526.448ZM247.131 526.448C249.883 526.448 252.123 524.144 252.123 521.264C252.123 518.512 249.883 516.272 247.131 516.272C244.315 516.272 242.075 518.512 242.075 521.264C242.075 524.144 244.315 526.448 247.131 526.448ZM295.506 526.448C298.258 526.448 300.498 524.144 300.498 521.264C300.498 518.512 298.258 516.272 295.506 516.272C292.69 516.272 290.45 518.512 290.45 521.264C290.45 524.144 292.69 526.448 295.506 526.448ZM343.881 526.448C346.633 526.448 348.873 524.144 348.873 521.264C348.873 518.512 346.633 516.272 343.881 516.272C341.065 516.272 338.825 518.512 338.825 521.264C338.825 524.144 341.065 526.448 343.881 526.448ZM392.256 526.448C395.008 526.448 397.248 524.144 397.248 521.264C397.248 518.512 395.008 516.272 392.256 516.272C389.44 516.272 387.2 518.512 387.2 521.264C387.2 524.144 389.44 526.448 392.256 526.448ZM440.631 526.448C443.383 526.448 445.623 524.144 445.623 521.264C445.623 518.512 443.383 516.272 440.631 516.272C437.815 516.272 435.575 518.512 435.575 521.264C435.575 524.144 437.815 526.448 440.631 526.448ZM489.006 526.448C491.758 526.448 493.998 524.144 493.998 521.264C493.998 518.512 491.758 516.272 489.006 516.272C486.19 516.272 483.95 518.512 483.95 521.264C483.95 524.144 486.19 526.448 489.006 526.448ZM537.381 526.448C540.133 526.448 542.373 524.144 542.373 521.264C542.373 518.512 540.133 516.272 537.381 516.272C534.565 516.272 532.325 518.512 532.325 521.264C532.325 524.144 534.565 526.448 537.381 526.448ZM585.756 526.448C588.508 526.448 590.748 524.144 590.748 521.264C590.748 518.512 588.508 516.272 585.756 516.272C582.94 516.272 580.7 518.512 580.7 521.264C580.7 524.144 582.94 526.448 585.756 526.448ZM634.131 526.448C636.883 526.448 639.123 524.144 639.123 521.264C639.123 518.512 636.883 516.272 634.131 516.272C631.315 516.272 629.075 518.512 629.075 521.264C629.075 524.144 631.315 526.448 634.131 526.448Z" fill="#C4B7F1"/>
</svg>
