<?xml version="1.0" encoding="UTF-8"?><svg id="Layer_1" xmlns="http://www.w3.org/2000/svg" viewBox="0 0 2447.59 1200.65"><defs><style>.cls-1{fill:#fff;}</style></defs><path class="cls-1" d="m521.02,489.73c-29.8,0-55.32,12.94-74.51,42.75h-.84v-36.51h-45.45v304.47h46.29v-119.31c13.32,21.61,37.26,39.67,71.44,39.67,53.37,0,99.66-44.33,99.66-116.51,0-63.99-37.72-114.56-96.58-114.56Zm-12.95,187.11c-35.3,0-62.4-29.43-62.4-71.44s27.1-71.81,62.4-71.81,61.28,30.27,61.28,71.81-25.52,71.44-61.28,71.44Z"/><path class="cls-1" d="m749.02,489.73c-65.94,0-111.86,47.87-111.86,115.68s45.92,115.4,111.86,115.4,111.39-47.5,111.39-115.4-45.45-115.68-111.39-115.68Zm0,187.11c-37.26,0-63.15-29.81-63.15-71.44s25.89-71.81,63.15-71.81,63.15,29.9,63.15,71.81-25.89,71.44-63.15,71.44Z"/><path class="cls-1" d="m1015.77,489.73c-30.18,0-56.44,13.32-74.51,41.91v-131.42h-46.29v313.88h45.55v-33.34h.74c13.32,23.19,38.84,40.05,71.44,40.05,53.37,0,99.66-44.33,99.66-116.14,0-64.36-37.72-114.93-96.58-114.93Zm-12.95,187.11c-35.3,0-62.31-29.06-62.31-71.44s26.64-71.81,61.94-71.81,61.66,30.64,61.66,71.81-25.52,71.44-61.28,71.44Z"/><path class="cls-1" d="m1243.77,489.73c-65.94,0-111.86,47.87-111.86,115.68s45.92,115.4,111.86,115.4v-43.96c-37.26,0-63.15-29.81-63.15-71.44s25.89-71.81,63.15-71.81,63.05,29.8,63.15,71.62h48.25c-.09-67.71-45.54-115.49-111.39-115.49Z"/><path class="cls-1" d="m1548.62,632.51c-10.99,27.48-32.97,44.34-61.19,44.34-36.14,0-63.99-27.85-63.99-71.81,0-40.43,24.4-71.44,62.03-71.44,25.15,0,46.66,12.94,56.07,40.05l43.96-17.7c-16.02-43.49-55.32-66.22-99.66-66.22-63.52,0-111.02,45.08-111.02,115.68s47.87,115.4,112.23,115.4c49.46,0,89.04-26.26,104.78-71.44l-43.22-16.86Z"/><path class="cls-1" d="m1774.2,638c-10.15,25.14-31.39,41.17-58.4,41.17-34.18,0-61.19-22.73-64.73-61.57h165.13v-13.78c0-82.34-52.9-114.09-103.57-114.09-63.52,0-108.69,48.99-108.69,116.14s47.87,114.93,111.86,114.93c49.46,0,87.08-27.1,101.99-65.57l-43.59-17.23Zm-61.94-108.32c27.1,0,53.74,14.9,56.91,54.58h-115.77c5.49-32.23,26.64-54.58,58.86-54.58Z"/><path class="cls-1" d="m1954.7,583.89c27.48-29.06,54.58-58.49,81.68-87.92h-55.79c-27.01,29.43-54.11,59.23-81.22,89.88h-.75v-185.63h-46.76v313.88h46.76v-69.02c8.57-9.03,17.6-18.44,26.27-27.85,22.73,32.13,45.17,64.73,67.9,96.86h54.58c-31.01-43.12-61.66-86.71-92.67-130.21Z"/><path class="cls-1" d="m1354.79,682.15c0,10.25-4.1,19.56-10.8,26.26-6.71,6.71-16.02,10.9-26.26,10.9-9.22,0-17.7-3.45-24.22-9.04-7.92-6.8-12.95-16.86-12.95-28.13,0-10.25,4.19-19.46,10.9-26.17,6.71-6.7,16.02-10.9,26.27-10.9s19.56,4.19,26.26,10.9c.37.37.74.75,1.02,1.12,6.15,6.61,9.78,15.37,9.78,25.05Z"/></svg>