<svg width="143" height="70" viewBox="0 0 143 70" fill="none" xmlns="http://www.w3.org/2000/svg">
<g clip-path="url(#clip0_155_385)">
<path d="M76.3959 35.2697C76.3959 37.6047 74.6956 39.2776 72.5977 39.2776C70.4998 39.2776 69.0407 37.6047 69.0407 35.2697C69.0407 32.9347 70.4968 31.2395 72.5977 31.2395V28.7734C68.8839 28.7734 66.301 31.4578 66.301 35.2697C66.301 39.0816 68.8845 41.7443 72.5977 41.7443C76.3109 41.7443 78.8696 39.0816 78.8696 35.2697V35.2601L76.3959 35.2697Z" fill="white"/>
<path d="M78.8697 28.7734V33.7086H76.3955V31.2395H74.1504V28.7734H78.8697Z" fill="white"/>
<path d="M23.3699 29.112H25.937V31.1638H25.9811C27.0656 29.4872 28.5042 28.759 30.1859 28.759C33.5058 28.759 35.6302 31.6051 35.6302 35.2017C35.6302 39.2614 33.019 41.7545 30.0091 41.7545C28.0838 41.7545 26.7338 40.7395 25.9811 39.526V46.2333H23.3699V29.112ZM29.456 39.283C31.4701 39.283 32.9087 37.5842 32.9087 35.2673C32.9087 32.9503 31.4477 31.2299 29.456 31.2299C27.4643 31.2299 25.937 32.8848 25.937 35.2673C25.937 37.6498 27.4643 39.283 29.456 39.283Z" fill="white"/>
<path d="M37.2903 35.2679C37.2903 31.4512 39.8798 28.759 43.5978 28.759C47.3158 28.759 49.883 31.4506 49.883 35.2679C49.883 39.0852 47.3158 41.7545 43.5978 41.7545C39.8798 41.7545 37.2903 39.0846 37.2903 35.2679ZM43.5978 39.2836C45.7005 39.2836 47.1608 37.6071 47.1608 35.2679C47.1608 32.9287 45.6999 31.2305 43.5978 31.2305C41.4957 31.2305 40.0348 32.907 40.0348 35.2679C40.0348 37.6287 41.4957 39.2836 43.5978 39.2836Z" fill="white"/>
<path d="M54.995 39.5037H54.9509V41.3793H52.3838V23.7288H54.995V31.1199C56.0132 29.5095 57.4958 28.759 59.1998 28.759C62.5197 28.759 64.6441 31.6051 64.6441 35.2234C64.6441 39.2608 62.033 41.7539 59.0231 41.7539C57.1864 41.7539 55.7478 40.805 54.995 39.5037ZM58.4693 39.283C60.4834 39.283 61.922 37.5843 61.922 35.2673C61.922 32.9503 60.4834 31.2299 58.4476 31.2299C56.4119 31.2299 54.9509 32.9287 54.9509 35.2673C54.9509 37.6059 56.4782 39.283 58.4699 39.283H58.4693Z" fill="white"/>
<path d="M80.5566 35.2679C80.5566 31.2966 83.2348 28.759 86.8195 28.759C89.3203 28.759 91.5334 30.0387 92.4406 32.4879L89.9621 33.4807C89.4313 31.9581 88.2141 31.2305 86.7972 31.2305C84.6728 31.2305 83.3005 32.9738 83.3005 35.2462C83.3005 37.7171 84.8718 39.2836 86.9076 39.2836C88.5012 39.2836 89.7401 38.3347 90.3602 36.7905L92.7947 37.7394C91.9092 40.2764 89.6744 41.7551 86.8859 41.7551C83.2565 41.7551 80.5566 39.2397 80.5566 35.2685V35.2679Z" fill="white"/>
<path d="M94.0344 35.2901C94.0344 31.5173 96.5793 28.7596 100.165 28.7596C103.019 28.7596 106.007 30.5468 106.007 35.1801V35.9522H96.6903C96.8893 38.1363 98.4166 39.4159 100.342 39.4159C101.869 39.4159 103.064 38.5115 103.64 37.0996L106.096 38.0701C105.255 40.2325 103.13 41.7545 100.342 41.7545C96.7349 41.7545 94.0344 39.1952 94.0344 35.2901ZM103.351 34.0766C103.174 31.8481 101.67 31.0098 100.142 31.0098C98.3273 31.0098 97.1324 32.2672 96.8223 34.0766H103.351H103.351Z" fill="white"/>
<path d="M108.574 23.7288H111.208V34.1644H111.252C112.779 32.4434 114.306 30.7669 115.833 29.112H118.976C117.448 30.7669 115.922 32.4218 114.373 34.0544C116.121 36.5036 117.847 38.9523 119.596 41.3793H116.519C115.236 39.5699 113.975 37.7388 112.69 35.93C112.204 36.4591 111.695 36.9889 111.208 37.4965V41.3793H108.574V23.7288Z" fill="white"/>
</g>
<defs>
<clipPath id="clip0_155_385">
<rect width="96.2257" height="22.5045" fill="white" transform="translate(23.3699 23.7288)"/>
</clipPath>
</defs>
</svg>
