<svg width="143" height="70" viewBox="0 0 143 70" fill="none" xmlns="http://www.w3.org/2000/svg">
<g clip-path="url(#clip0_155_395)">
<path d="M76.3962 35.2697C76.3962 37.6047 74.6958 39.2776 72.5979 39.2776C70.5 39.2776 69.0409 37.6047 69.0409 35.2697C69.0409 32.9347 70.497 31.2395 72.5979 31.2395V28.7734C68.8841 28.7734 66.3013 31.4578 66.3013 35.2697C66.3013 39.0816 68.8847 41.7443 72.5979 41.7443C76.3111 41.7443 78.8699 39.0816 78.8699 35.2697V35.2601L76.3962 35.2697Z" fill="#1A1A33"/>
<path d="M78.8697 28.7734V33.7086H76.3955V31.2395H74.1504V28.7734H78.8697Z" fill="#C4B7F1"/>
<path d="M23.3701 29.112H25.9373V31.1638H25.9813C27.0658 29.4872 28.5044 28.759 30.1861 28.759C33.5061 28.759 35.6305 31.6051 35.6305 35.2017C35.6305 39.2614 33.0193 41.7545 30.0094 41.7545C28.084 41.7545 26.7341 40.7395 25.9813 39.526V46.2333H23.3701V29.112ZM29.4563 39.283C31.4703 39.283 32.9089 37.5842 32.9089 35.2673C32.9089 32.9503 31.448 31.2299 29.4563 31.2299C27.4645 31.2299 25.9373 32.8848 25.9373 35.2673C25.9373 37.6498 27.4645 39.283 29.4563 39.283Z" fill="#1A1A33"/>
<path d="M37.2905 35.2679C37.2905 31.4512 39.88 28.759 43.598 28.759C47.3161 28.759 49.8832 31.4506 49.8832 35.2679C49.8832 39.0852 47.3161 41.7545 43.598 41.7545C39.88 41.7545 37.2905 39.0846 37.2905 35.2679ZM43.598 39.2836C45.7008 39.2836 47.1611 37.6071 47.1611 35.2679C47.1611 32.9287 45.7001 31.2305 43.598 31.2305C41.4959 31.2305 40.035 32.907 40.035 35.2679C40.035 37.6287 41.4959 39.2836 43.598 39.2836Z" fill="#1A1A33"/>
<path d="M54.995 39.5037H54.9509V41.3793H52.3838V23.7288H54.995V31.1199C56.0132 29.5095 57.4958 28.759 59.1998 28.759C62.5197 28.759 64.6441 31.6051 64.6441 35.2234C64.6441 39.2608 62.033 41.7539 59.0231 41.7539C57.1864 41.7539 55.7478 40.805 54.995 39.5037ZM58.4693 39.283C60.4834 39.283 61.922 37.5843 61.922 35.2673C61.922 32.9503 60.4834 31.2299 58.4476 31.2299C56.4119 31.2299 54.9509 32.9287 54.9509 35.2673C54.9509 37.6059 56.4782 39.283 58.4699 39.283H58.4693Z" fill="#1A1A33"/>
<path d="M80.5571 35.2679C80.5571 31.2966 83.2353 28.759 86.82 28.759C89.3208 28.759 91.5339 30.0387 92.4411 32.4879L89.9626 33.4807C89.4318 31.9581 88.2146 31.2305 86.7977 31.2305C84.6733 31.2305 83.301 32.9738 83.301 35.2462C83.301 37.7171 84.8723 39.2836 86.9081 39.2836C88.5017 39.2836 89.7406 38.3347 90.3607 36.7905L92.7952 37.7394C91.9097 40.2764 89.6749 41.7551 86.8864 41.7551C83.257 41.7551 80.5571 39.2397 80.5571 35.2685V35.2679Z" fill="#1A1A33"/>
<path d="M94.0347 35.2901C94.0347 31.5173 96.5795 28.7596 100.165 28.7596C103.02 28.7596 106.007 30.5468 106.007 35.1801V35.9522H96.6905C96.8895 38.1363 98.4168 39.4159 100.342 39.4159C101.869 39.4159 103.064 38.5115 103.64 37.0996L106.096 38.0701C105.255 40.2325 103.131 41.7545 100.342 41.7545C96.7351 41.7545 94.0347 39.1952 94.0347 35.2901ZM103.351 34.0766C103.175 31.8481 101.67 31.0098 100.143 31.0098C98.3275 31.0098 97.1326 32.2672 96.8226 34.0766H103.351H103.351Z" fill="#1A1A33"/>
<path d="M108.574 23.7288H111.208V34.1644H111.252C112.779 32.4434 114.306 30.7669 115.833 29.112H118.976C117.448 30.7669 115.922 32.4218 114.373 34.0544C116.121 36.5036 117.847 38.9523 119.596 41.3793H116.519C115.236 39.5699 113.975 37.7388 112.69 35.93C112.204 36.4591 111.695 36.9889 111.208 37.4965V41.3793H108.574V23.7288Z" fill="#1A1A33"/>
</g>
<defs>
<clipPath id="clip0_155_395">
<rect width="96.2257" height="22.5045" fill="white" transform="translate(23.3701 23.7288)"/>
</clipPath>
</defs>
</svg>
